<svg width="28" height="24" viewBox="0 0 28 24" fill="none" xmlns="http://www.w3.org/2000/svg">
<path d="M2.35795 19H0.511364L5.85227 4.45455H7.67045L13.0114 19H11.1648L6.81818 6.75568H6.70455L2.35795 19ZM3.03977 13.3182H10.483V14.8807H3.03977V13.3182ZM15.277 19V4.45455H20.3622C21.3755 4.45455 22.2112 4.62973 22.8693 4.98011C23.5275 5.32576 24.0175 5.79214 24.3395 6.37926C24.6615 6.96165 24.8224 7.60795 24.8224 8.31818C24.8224 8.94318 24.7112 9.45928 24.4886 9.86648C24.2708 10.2737 23.982 10.5956 23.6222 10.8324C23.267 11.0691 22.8812 11.2443 22.4645 11.358V11.5C22.9096 11.5284 23.357 11.6847 23.8068 11.9688C24.2566 12.2528 24.633 12.66 24.9361 13.1903C25.2391 13.7206 25.3906 14.3693 25.3906 15.1364C25.3906 15.8655 25.2249 16.5213 24.8935 17.1037C24.562 17.6861 24.0388 18.1477 23.3239 18.4886C22.6089 18.8295 21.6785 19 20.5327 19H15.277ZM17.0384 17.4375H20.5327C21.6832 17.4375 22.5 17.215 22.983 16.7699C23.4706 16.3201 23.7145 15.7756 23.7145 15.1364C23.7145 14.6439 23.589 14.1894 23.3381 13.7727C23.0871 13.3513 22.7296 13.0152 22.2656 12.7642C21.8016 12.5085 21.2524 12.3807 20.6179 12.3807H17.0384V17.4375ZM17.0384 10.8466H20.3054C20.8357 10.8466 21.3139 10.7424 21.7401 10.5341C22.1709 10.3258 22.5118 10.0322 22.7628 9.65341C23.0185 9.27462 23.1463 8.82955 23.1463 8.31818C23.1463 7.67898 22.9238 7.13684 22.4787 6.69176C22.0336 6.24195 21.3281 6.01705 20.3622 6.01705H17.0384V10.8466Z" fill="white"/>
</svg>
