<svg width="16" height="14" viewBox="0 0 16 14" fill="none" xmlns="http://www.w3.org/2000/svg">
<path d="M0.78 0.999999V0.279999H5.3C8.38 0.279999 9.98 0.286666 10.1 0.299999C11.02 0.353332 11.8333 0.559999 12.54 0.919999C13.2333 1.28 13.7533 1.78667 14.1 2.44C14.22 2.68 14.3067 2.94 14.36 3.22C14.4267 3.55333 14.4333 3.91333 14.38 4.3C14.2333 4.9 13.9267 5.41333 13.46 5.84C12.94 6.26667 12.32 6.57333 11.6 6.76L11.38 6.82L11.52 6.84C12.7867 7.05333 13.72 7.51333 14.32 8.22C14.6533 8.63333 14.88 9.1 15 9.62C15.0267 9.74 15.04 9.93333 15.04 10.2C15.0533 10.76 14.92 11.3067 14.64 11.84C14.0667 12.9333 13.0267 13.6133 11.52 13.88C11.4267 13.8933 11.3267 13.9067 11.22 13.92C10.86 13.9733 8.98667 14 5.6 14H0.78V13.28V12.56H1.86H2.94V7.14V1.72H1.86H0.78V0.999999ZM9.88 1.78L9.74 1.74L7.9 1.72H6.06V3.98V6.26H7.5C8.5 6.26 9.04 6.25333 9.12 6.24C10.1333 6.12 10.76 5.56 11 4.56C11 4.52 11.0067 4.48 11.02 4.44C11.1 4.10667 11.1133 3.76667 11.06 3.42C10.9533 2.54 10.56 1.99333 9.88 1.78ZM10.22 7.54L10.08 7.48H8.06H6.06V10.02V12.56H7.84C9.17333 12.56 9.95333 12.5267 10.18 12.46C11.06 12.18 11.5333 11.4933 11.6 10.4C11.6133 10.24 11.6133 10.0733 11.6 9.9C11.56 9.42 11.48 9.02 11.36 8.7C11.12 8.11333 10.74 7.72667 10.22 7.54Z" fill="white"/>
</svg>
