<svg width="14" height="13" viewBox="0 0 14 13" fill="none" xmlns="http://www.w3.org/2000/svg">
<line x1="5.16675" y1="2.7489" x2="13.5001" y2="2.7489" stroke="white" stroke-linecap="round"/>
<line x1="5.16675" y1="7.62402" x2="13.5001" y2="7.62402" stroke="white" stroke-linecap="round"/>
<line x1="5.16675" y1="12.499" x2="13.5001" y2="12.499" stroke="white" stroke-linecap="round"/>
<path d="M3.06111 1.625C3.06111 2.49693 2.38502 3.2 1.55556 3.2C0.726096 3.2 0.05 2.49693 0.05 1.625C0.05 0.753071 0.726096 0.05 1.55556 0.05C2.38502 0.05 3.06111 0.753071 3.06111 1.625Z" stroke="#D3D3D3" stroke-width="0.1"/>
<path d="M3.06111 6.5C3.06111 7.37193 2.38502 8.075 1.55556 8.075C0.726096 8.075 0.05 7.37193 0.05 6.5C0.05 5.62807 0.726096 4.925 1.55556 4.925C2.38502 4.925 3.06111 5.62807 3.06111 6.5Z" stroke="#D3D3D3" stroke-width="0.1"/>
<path d="M3.06111 11.375C3.06111 12.2469 2.38502 12.95 1.55556 12.95C0.726096 12.95 0.05 12.2469 0.05 11.375C0.05 10.5031 0.726096 9.8 1.55556 9.8C2.38502 9.8 3.06111 10.5031 3.06111 11.375Z" stroke="#D3D3D3" stroke-width="0.1"/>
</svg>
