<svg width="27" height="24" viewBox="0 0 27 24" fill="none" xmlns="http://www.w3.org/2000/svg">
<path d="M3.77131 19H0.475852L5.49716 4.45455H9.46023L14.4744 19H11.179L7.53551 7.77841H7.42188L3.77131 19ZM3.56534 13.2827H11.3494V15.6832H3.56534V13.2827ZM15.9091 19V8.09091H18.1783V12.1925H18.2475C18.3469 11.9723 18.4908 11.7486 18.679 11.5213C18.8707 11.2905 19.1193 11.0987 19.4247 10.946C19.7337 10.7898 20.1172 10.7116 20.5753 10.7116C21.1719 10.7116 21.7223 10.8679 22.2266 11.1804C22.7308 11.4893 23.1339 11.9563 23.4357 12.5813C23.7376 13.2028 23.8885 13.9822 23.8885 14.9197C23.8885 15.8324 23.7411 16.603 23.4464 17.2315C23.1552 17.8565 22.7575 18.3306 22.2532 18.6538C21.7525 18.9734 21.1914 19.1332 20.57 19.1332C20.1296 19.1332 19.755 19.0604 19.446 18.9148C19.1406 18.7692 18.8903 18.5863 18.695 18.3661C18.4996 18.1424 18.3505 17.9169 18.2475 17.6896H18.1463V19H15.9091ZM18.1303 14.9091C18.1303 15.3956 18.1978 15.82 18.3327 16.1822C18.4677 16.5444 18.663 16.8267 18.9187 17.0291C19.1744 17.228 19.4851 17.3274 19.8509 17.3274C20.2202 17.3274 20.5327 17.2262 20.7884 17.0238C21.044 16.8178 21.2376 16.5337 21.369 16.1715C21.5039 15.8058 21.5714 15.3849 21.5714 14.9091C21.5714 14.4368 21.5057 14.0213 21.3743 13.6626C21.2429 13.304 21.0494 13.0234 20.7937 12.821C20.538 12.6186 20.2237 12.5174 19.8509 12.5174C19.4815 12.5174 19.169 12.6151 18.9134 12.8104C18.6612 13.0057 18.4677 13.2827 18.3327 13.6413C18.1978 14 18.1303 14.4226 18.1303 14.9091Z" fill="white"/>
</svg>
