<svg width="11" height="14" viewBox="0 0 11 14" fill="none" xmlns="http://www.w3.org/2000/svg">
<path d="M3.82 0.379999C3.86 0.353333 3.97333 0.339999 4.16 0.339999C5.4 0.393333 6.78 0.406666 8.3 0.379999L9.82 0.339999H10.04L10.1 0.4C10.1533 0.453333 10.18 0.506666 10.18 0.559999C10.18 0.773333 10.1133 1.03333 9.98 1.34C9.95333 1.42 9.76 1.46 9.4 1.46C9.33333 1.46 9.25333 1.46 9.16 1.46C8.37333 1.47333 7.93333 1.52667 7.84 1.62L7.76 1.68L6.4 7.2C5.48 10.8533 5.02 12.7 5.02 12.74C5.00667 12.78 5.06667 12.8067 5.2 12.82C5.37333 12.8467 5.70667 12.8667 6.2 12.88C6.70667 12.88 6.98667 12.9267 7.04 13.02C7.05333 13.06 7.03333 13.2133 6.98 13.48C6.91333 13.7333 6.85333 13.8867 6.8 13.94L6.74 14H6.42C4.88667 13.9333 3.14667 13.9267 1.2 13.98C0.746667 13.9933 0.493333 13.9533 0.44 13.86C0.426667 13.82 0.446667 13.6667 0.5 13.4C0.58 13.1333 0.633333 12.98 0.66 12.94L0.74 12.88H1.44C2.14667 12.8667 2.56667 12.8267 2.7 12.76C2.74 12.7467 2.78667 12.7133 2.84 12.66L5.6 1.6C5.6 1.58667 5.58667 1.56667 5.56 1.54C5.45333 1.5 5.08 1.47333 4.44 1.46C3.92 1.46 3.64 1.42 3.6 1.34C3.57333 1.3 3.58667 1.14667 3.64 0.88C3.70667 0.599999 3.76667 0.433332 3.82 0.379999Z" fill="white"/>
</svg>
