<svg width="40" height="21" viewBox="0 0 40 21" fill="none" xmlns="http://www.w3.org/2000/svg">
<path d="M3.35795 19H1.51136L6.85227 4.45455H8.67045L14.0114 19H12.1648L7.81818 6.75568H7.70455L3.35795 19ZM4.03977 13.3182H11.483V14.8807H4.03977V13.3182ZM16.277 19V4.45455H17.9531V9.82386H18.0952C18.2183 9.63447 18.3887 9.39299 18.6065 9.09943C18.8291 8.80114 19.1463 8.53598 19.5582 8.30398C19.9749 8.06723 20.5384 7.94886 21.2486 7.94886C22.1671 7.94886 22.9768 8.1785 23.6776 8.63778C24.3783 9.09706 24.9252 9.74811 25.3182 10.5909C25.7112 11.4337 25.9077 12.428 25.9077 13.5739C25.9077 14.7292 25.7112 15.7306 25.3182 16.5781C24.9252 17.4209 24.3807 18.0743 23.6847 18.5384C22.9886 18.9976 22.1861 19.2273 21.277 19.2273C20.5762 19.2273 20.0152 19.1113 19.5938 18.8793C19.1723 18.6425 18.848 18.375 18.6207 18.0767C18.3935 17.7737 18.2183 17.5227 18.0952 17.3239H17.8963V19H16.277ZM17.9247 13.5455C17.9247 14.3693 18.0455 15.0961 18.2869 15.7259C18.5284 16.3509 18.8812 16.8409 19.3452 17.196C19.8092 17.5464 20.3774 17.7216 21.0497 17.7216C21.7505 17.7216 22.3352 17.5369 22.804 17.1676C23.2775 16.7936 23.6326 16.2917 23.8693 15.6619C24.1108 15.0275 24.2315 14.322 24.2315 13.5455C24.2315 12.7784 24.1132 12.0871 23.8764 11.4716C23.6444 10.8513 23.2917 10.3613 22.8182 10.0014C22.3494 9.63684 21.7599 9.45455 21.0497 9.45455C20.3679 9.45455 19.795 9.62737 19.331 9.97301C18.867 10.3139 18.5166 10.7921 18.2798 11.4077C18.0431 12.0185 17.9247 12.7311 17.9247 13.5455ZM32.9034 19.2273C31.8807 19.2273 31 18.9858 30.2614 18.5028C29.5227 18.0199 28.9545 17.3546 28.5568 16.5071C28.1591 15.6596 27.9602 14.6913 27.9602 13.6023C27.9602 12.4943 28.1638 11.5166 28.571 10.669C28.983 9.81676 29.5559 9.15152 30.2898 8.6733C31.0284 8.19034 31.8902 7.94886 32.875 7.94886C33.642 7.94886 34.3333 8.09091 34.9489 8.375C35.5644 8.65909 36.0687 9.05682 36.4616 9.56818C36.8546 10.0795 37.0985 10.6761 37.1932 11.358H35.517C35.3892 10.8608 35.1051 10.4205 34.6648 10.0369C34.2292 9.64867 33.642 9.45455 32.9034 9.45455C32.25 9.45455 31.6771 9.625 31.1847 9.96591C30.697 10.3021 30.3158 10.7779 30.0412 11.3935C29.7713 12.0043 29.6364 12.7216 29.6364 13.5455C29.6364 14.3883 29.7689 15.1222 30.0341 15.7472C30.304 16.3722 30.6828 16.8575 31.1705 17.2031C31.6629 17.5488 32.2405 17.7216 32.9034 17.7216C33.339 17.7216 33.7344 17.6458 34.0895 17.4943C34.4446 17.3428 34.7453 17.125 34.9915 16.8409C35.2377 16.5568 35.4129 16.2159 35.517 15.8182H37.1932C37.0985 16.4621 36.8641 17.0421 36.4901 17.5582C36.1207 18.0696 35.6307 18.4768 35.0199 18.7798C34.4138 19.0781 33.7083 19.2273 32.9034 19.2273Z" fill="white"/>
<path d="M1 13H39" stroke="white" stroke-width="0.5" stroke-linecap="round"/>
</svg>
